<svg id="Layer_1" data-name="Layer 1" xmlns="http://www.w3.org/2000/svg" xmlns:xlink="http://www.w3.org/1999/xlink" viewBox="0 0 509.87 408.86"><defs><style>.cls-1{fill:none;}.cls-2{clip-path:url(#clip-path);}.cls-3{fill:#4879b3;}</style><clipPath id="clip-path" transform="translate(0 0)"><rect class="cls-1" width="509.87" height="408.86"/></clipPath></defs><title>icon_features-02</title><g class="cls-2"><path class="cls-3" d="M0,232c1.34-.24,1.66-1.5,2.33-2.38C7.22,223.19,7.25,223.12,14,228q26.25,19.08,52.43,38.26c5.61,4.1,8.59,3.79,12.48-1.79q32.86-47.07,65.64-94.2c3.35-4.83,1.84-9.06-4.75-12.79-12.89-7.3-25.34-15.29-37.67-23.48-1.45-1-4.67-1.36-3.69-3.73,1.23-3,3.52-5.58,5.65-8.09.68-.8,1.74.57,2.52,1.06q19.41,12.25,38.75,24.59c3.26,2.07,6.66,4.33,8.27,7.8,1.81,3.87,4.34,4.44,8.19,4.43q95-.18,190,0c3,0,4.82-.74,6.29-3.48,2.24-4.19,5.92-7.11,9.92-9.63,12.1-7.62,24.24-15.18,36.19-23,3-2,4.51-1.94,6.89.82,5.65,6.6,5.8,6.43-1.54,11q-17.58,10.92-35.13,21.9c-7.37,4.63-8,7.73-3.07,14.91q31.32,46,62.61,92c3.34,4.9,4.88,5.4,10.25,2.78a31.7,31.7,0,0,0,5-3.25c17.06-12.76,34.13-25.5,51.64-37.64,1.5-1,3-2,4.53-3,6.4,9,6.35,8.88-2.23,15.19q-24.94,18.34-49.76,36.86a25.9,25.9,0,0,1-15.73,5.43c-5.55,0-10.11-2.09-13.24-6.68-22.5-33-45.05-65.93-67.24-99.12-2.14-3.2-3.92-4-7.33-4q-59,.14-118,0a11.88,11.88,0,0,0-6.2,1.37q-20.8,11.81-41.76,23.36c-2.15,1.19-3.1,2.39-3.07,4.94.15,11.33.23,22.67,0,34-.08,3.67,1.51,3.78,4.14,3.18,7.26-1.67,12.5-6,16.1-12.39a52.85,52.85,0,0,0,6.1-19.37c.42-3.24,1.42-4.7,5.25-4.64,17.65.27,35.32.19,53,0,3.28,0,4.4.8,5,4.21,2.46,14.33,13.82,24,28.87,25.17a17.84,17.84,0,0,0,4,.12c12.69-2,22.79,3,33,10.2,24.44,17.29,49.57,33.59,74.39,50.35,9.94,6.71,14.34,16.24,12.22,28-2.07,11.5-9.32,19-20.7,21.87a28,28,0,0,1-21.67-3.1c-1.53-.9-2.87-2.29-5.16-2.43-.69,10.73-5.46,18.91-15.17,23.9s-19.22,4.14-28.68-2.31c-1.12,13.06-6.9,22.22-19,26.49s-22.42-.38-32.19-8c-1.2,15-8.94,23.74-22.85,27.27a23.59,23.59,0,0,1-16-1.7c-2-.89-3.1-1.29-5.05.43-14.45,12.73-33.72,7-39.38-11.51-.69-2.24-.8-4.15-4.39-3.35-13.71,3.06-28.18-7.07-30.43-21.21-.48-3-1-4.06-4.43-3.85-16.14,1-27.08-7.9-29.45-23.95-.43-2.93-1.58-2.3-3.43-2.22-10.8.45-19.12-4.29-24.72-13.2-5.35-8.52-4.3-17.47.15-26.14.67-1.32,1.42-3,2.6-3.59,6.52-3.26,4.2-7.43,1.76-12-2.64-4.95-6.36-8.91-10.34-12.72-1.53-1.47-2.69-1.8-3.76.36a7.57,7.57,0,0,1-.55.84c-9.52,13.58-20.17,15-33.54,4.7-9.09-7-18.16-14.07-27.44-20.84C19.42,246.38,9.66,239.75,0,233ZM154.21,27.92c-3,0-4.42.57-3.93,3.8a13.34,13.34,0,0,1,0,4c-.58,3.59,1,4.41,4.38,4.35,12.33-.2,24.66-.08,37-.08h11.44c-4.61,5-9.11,10.11-13.87,15-5.09,5.18-5,4.91.2,10.11,2.59,2.57,4,2.57,6.57-.12,9.34-9.74,18.94-19.23,28.59-28.66,2.08-2,2.43-3.09.1-5.33-8.76-8.43-17.25-17.14-25.86-25.73-6.24-6.24-6.14-6.12-12.44.27-2.11,2.14-1.66,3.15.21,5.07,5.57,5.74,10.86,11.73,16.07,17.44-15.55,0-32,.07-48.44-.07M308.8,26.5q6.46-6.26,12.93-12.51c6.57-6.34,6.49-6.25-.33-12.72-1.78-1.68-2.71-1.7-4.37,0q-15.09,15.3-30.36,30.43c-1.19,1.18-1.91,1.92-.31,3.5Q302,50.64,317.48,66.29c1.29,1.31,2.31,1.65,3.56,0A11.76,11.76,0,0,1,322.51,65c5.48-5,5.37-4.89.32-10-4.81-4.9-9.37-10-14-15h1.95c15.66,0,31.33-.08,47,.07,3,0,4.37-.69,3.88-3.85a10.76,10.76,0,0,1,0-3.49c.71-4.09-1.14-4.86-4.92-4.81-16.12.21-32.24.09-49.2.09.82-1,1-1.26,1.23-1.49M73.07,252.05c1.64-2.28,3.2-4.62,4.84-6.91.9-1.27.27-1.89-.71-2.77-7-6.24-8.74-6-13.51,2.16-.45.76-1.73,1.61-.68,2.45,2.71,2.17,5.6,4.09,8.61,6.25a7.59,7.59,0,0,0,1.45-1.18M100,32.49c0,7.5,0,7.37,6,7.56,3.72.11,6.94.44,6.1-5.11-.56-3.66,1.49-8.83-4.9-7C100,28,100,28,100,32.49M131.35,28c-3,.62-8.59-2.48-7.27,4.63.51,2.77-2.88,7.74,4.07,7.46,7.81-.32,7.83,0,7.82-5.73-.07-3.2,1.51-7.62-4.62-6.36M376,32.8c.64,3.11-2.13,8.51,4.84,7.13,2.79-.56,7.74,2.84,7.31-4.24C387.65,28,388,28,382.77,28c-3.82.08-8-1.2-6.81,4.83m30.67,7.34c5.6.51,5.61-2.28,5.45-6.32-.25-5.85-.1-5.45-7.73-6-5.38-.37-4.45,2.71-4.35,4.51,0,7.65.05,7.19,6.63,7.79M442.36,237.2c-1.06.05-9.14,5.69-9.14,6.37,0,1.37,6,9.51,6.75,9,3-2,6.71-3.21,8.91-5.92-.18-1.87-5.71-9.53-6.52-9.49M226.56,358.38c16.05,3.47,22.63,13.35,19.63,29.88-.47,2.63.86,3.15,2.63,3.86,6.09,2.46,14.33-.07,18.24-5.64a16.56,16.56,0,0,0-1.1-20c-3-3.6-6.86-6.21-10.73-8.81-7.49-5-7.36-5-2.12-12.46,1.6-2.29,2.63-2.61,5-.89q17.7,13,35.63,25.72c8.58,6.11,17.87,4.82,23.19-3.06,5.05-7.48,2.74-16.86-5.58-22.39q-17.67-11.75-35.38-23.41c-5.59-3.69-5.59-3.69-1.76-9.39a5.56,5.56,0,0,0,.59-.81c1.58-3.73,3.44-3.58,6.66-1.32,18.76,13.23,37.71,26.21,56.58,39.3,2.91,2,5.93,3.69,9.54,4,7.6.62,14-3.36,16.51-10.22,2.62-7.18.29-14.57-6.44-19.27-18.42-12.86-36.92-25.6-55.39-38.39-6.29-4.36-6.12-4.29-2.62-11.15,1.5-2.95,2.52-3.33,5.35-1.33,16.18,11.42,32.51,22.63,48.81,33.87,10.69,7.36,21.31,14.83,32.18,21.92,11.06,7.22,24.72,1,25.47-11.3.41-6.61-2.69-11.35-8.1-15-23.45-15.81-47.1-31.35-70.13-47.77-10-7.11-19.78-10.92-32.39-10.76-18.43.23-32.47-8.66-39.74-26.4-.9-2.2-2-3-4.35-2.93-11.5.13-23,.2-34.5,0-3.21-.06-4.28,1.24-5,4a57.07,57.07,0,0,1-8.77,18.89,33,33,0,0,1-34.89,12.72c-3.27-.83-4.85-2.19-4.78-6.11.29-16.49.2-33,.06-49.49,0-2.89.85-4.39,3.46-5.67,9.74-4.8,19.36-9.86,29-14.83-11.28-.84-22.39-.36-33.44-1-8-.47-12.74,1.65-17.42,8.88C134.52,206.15,117.5,230,100.74,254c-1.94,2.79-1.79,4.18.78,6.35,6.94,5.86,12.71,12.68,15.8,21.44.65,1.83,1.24,3.31,4.1,3.19,11.7-.5,19.94,5.29,25.37,15.3,1.13,2.08,1.54,2.42,3.79,1.09a26.39,26.39,0,0,1,37.34,11.28c1.45,3.08,2.43,3.73,5.52,1.88,16.85-10.05,38.91,4.12,39,23.14,0,7.56-3,13.84-7.37,20a12.79,12.79,0,0,0,1.46.66M211.43,324c-5.8-2.2-12.12-.49-16.49,5-5.91,7.42-11.55,15.05-17.24,22.64S173,368,179.79,373.38c6.49,5.1,15.93,3.49,21.54-3.78,5.49-7.11,10.89-14.3,16.34-21.45,2.17-2.85,3.64-5.95,3.42-9.3,0-6.57-4.13-12.74-9.66-14.83m-40.68-13.59a14.21,14.21,0,0,0-15.87,4.23c-3.9,4.52-7.37,9.43-10.91,14.26s-3.81,10.24-.69,15.43c3.21,5.36,8.11,7.77,14.36,7,9.11-1.08,22.61-17,22.54-26.43v-.5a15.19,15.19,0,0,0-9.43-14m-32.05,1.18c.12-7.92-7.63-15.68-15.61-15.63-7.6,0-14,6.19-13.87,13.36.12,8.41,6.93,15.56,14.89,15.63,7.65.06,14.49-6.2,14.59-13.36m84.13,58.05c-6.77.11-14,7.83-14,15a12.19,12.19,0,0,0,11.83,12.26c7.06.08,14.58-8,14.55-15.67,0-6.56-5.5-11.69-12.35-11.58" transform="translate(0 0)"/></g></svg>